<svg width="1" height="1" version="1.1" viewBox="0 0 1 1" xmlns="http://www.w3.org/2000/svg">
 <ellipse cx=".50131" cy=".49905" rx=".13294" ry=".133"/>
 <g fill="none" stroke="#000">
  <ellipse cx=".50013" cy=".502" rx=".36684" ry=".36702" stroke-width=".02323"/>
  <g stroke-width=".026288">
   <path d="m0.42627 0.14268c-0.23774 0.37157 0 0.71659 0 0.71659"/>
   <path d="m0.25416 0.22809c-0.064518 0.2857 0 0.54495 0 0.54495"/>
   <path d="m0.57434 0.14268c0.23774 0.37157 0 0.71659 0 0.71659"/>
   <path d="m0.74644 0.22809c0.064518 0.2857 0 0.54495 0 0.54495"/>
   <path d="m0.85844 0.4269c-0.3714-0.23785-0.71628 0-0.71628 0"/>
   <path d="m0.77309 0.25472c-0.28557-0.064549-0.5447 0-0.5447 0"/>
   <path d="m0.85844 0.57507c-0.3714 0.23785-0.71628 0-0.71628 0"/>
   <path d="m0.77309 0.74724c-0.28557 0.064546-0.5447 0-0.5447 0"/>
  </g>
  <g stroke-width=".018382">
   <path d="m0.097536 0.78096 0.044423 0.056082"/>
   <path d="m0.11975 0.81056 0.061346-0.049732"/>
   <path d="m0.065806 0.7328c-0.020625-0.037565 0.043365-0.076188 0.066105-0.045502 0.021682 0.03439-0.039664 0.08148-0.066105 0.045502z"/>
   <path d="m0.0094679 0.43997c0.011056-0.041405 0.083977-0.025057 0.079203 0.012844-0.0080976 0.039844-0.08496 0.031437-0.079203-0.012844z"/>
   <path d="m0.030171 0.65981 0.083184-0.022653"/>
   <path d="m0.020929 0.61173 0.04344 0.019882 0.0305-0.039761"/>
   <path d="m0.0079888 0.51417 0.040666 0.023118-0.031887 0.031437 0.033273-0.03005 0.041131-0.0023119"/>
   <path d="m0.036179 0.32647 0.053144 0.024042c0.025879 0.014333 0.050834-0.038374 0.026342-0.049932l-0.056379-0.026354"/>
   <path d="m0.15402 0.28625-0.062386-0.046697 0.0055457-0.008322 0.073015 0.005086 0.006008-0.008784-0.060076-0.041609"/>
   <path d="m0.1457 0.16188 0.031425-0.028665"/>
   <path d="m0.16049 0.14894 0.052221 0.054094"/>
   <path d="m0.19746 0.21875 0.032811-0.030052"/>
   <path d="m0.19793 0.11519 0.061002 0.042535 0.006008-0.004161-0.017561-0.073512"/>
   <path d="m0.32686 0.040748-0.042979 0.020805 0.030963 0.06935 0.042979-0.019881-0.041592 0.019418-0.018023-0.036525 0.041131-0.020805"/>
   <path d="m0.38091 0.10871-0.017099-0.078134 0.011553-0.0032364c0.049447-0.012945 0.058689 0.028665 0.005546 0.041148"/>
   <path d="m0.3994 0.063405 0.03235 0.029128"/>
   <path d="m0.51034 0.014858c-0.005545-0.0023117-0.017097-0.0064727-0.022181-0.0055481-0.039743 4.6232e-4 -0.038356 0.040222-0.00231 0.040687 0.039282 0 0.036046 0.042535 9.2441e-4 0.042074-0.006471 0.001387-0.025878-0.0055481-0.029114-0.0083222"/>
   <path d="m0.95899 0.34647c8.8173e-4 -0.005945 0.002084-0.018171-5.534e-5 -0.022875-0.010183-0.038438-0.048377-0.027352-0.039993 0.007725 0.009624 0.038101-0.032391 0.045382-0.040545 0.011202-0.002929-0.005936-9.6274e-4 -0.026462 9.331e-4 -0.030279"/>
   <path d="m0.53619 0.013008 0.042979 0.0036987"/>
   <path d="m0.53113 0.090219 0.041131 0.0032364"/>
   <path d="m0.55562 0.019481-0.002773 0.070276"/>
   <path d="m0.5986 0.020868 0.068857 0.018031"/>
   <path d="m0.63463 0.030577-0.024495 0.076747"/>
   <path d="m0.69288 0.047684 0.004623 0.051781 0.042979-0.027278-0.042979 0.026816-0.018023 0.0356"/>
   <path d="m0.77286 0.19183c-0.022911-0.036215 0.038564-0.078728 0.063161-0.049509 0.023769 0.032981-0.034542 0.083778-0.063161 0.049509z"/>
   <path d="m0.81811 0.24464 0.065622-0.047619 0.028653 0.038374-0.027727-0.03745-0.03004 0.020343 0.026343 0.037912"/>
   <path d="m0.98031 0.43283c0.016636-0.081374-0.11368-0.051781-0.065622 0.01202"/>
   <path d="m0.90501 0.76629c0.066929-0.049139-0.049519-0.11473-0.056704-0.035161"/>
   <path d="m0.99048 0.45918 4.6199e-4 0.044384"/>
   <path d="m0.91375 0.46054-4.6203e-4 0.043922"/>
   <path d="m0.91239 0.48227 0.077177-9.2483e-4"/>
   <path d="m0.98077 0.58679 0.006006-0.049932-0.074403-0.007397-0.005545 0.048545 0.006006-0.047158 0.038817 0.002774-0.003697 0.046697"/>
   <path d="m0.89481 0.59926 0.073942 0.023118-0.001848 0.005549-0.074864 0.020805-0.001386 0.007397 0.070706 0.023118"/>
   <path d="m0.85368 0.83875 0.031424-0.038835-0.056379-0.048084-0.033272 0.037912 0.032811-0.036525 0.030962 0.026815-0.03004 0.034677"/>
  </g>
  <g stroke-width=".010476">
   <path d="m0.27167 0.89145s-0.005186-0.008947-0.008127-0.011071c-0.014705-0.015203-0.034221 6.9868e-4 -0.015105 0.020313 0.019116 0.018144-9.0566e-4 0.033989-0.015937 0.019931-0.001797-0.001635-0.008888-0.01041-0.010195-0.012534"/>
   <path d="m0.30672 0.87803-0.004248 0.008335"/>
   <path d="m0.29756 0.89651-0.025815 0.048712"/>
   <path d="m0.32502 0.91121-0.020424 0.048874 0.015358-0.0358c0.004248-0.01095 0.040193-0.001144 0.033984 0.014386l-0.014868 0.034979"/>
   <path d="m0.41603 0.94357c-0.040518-0.029423-0.06225 0.052635-0.008169 0.04201"/>
   <path d="m0.47401 0.96803c6.5368e-4 -0.025499-0.040031-0.030814-0.040602-8.1729e-4l-4.0828e-4 0.013404c-0.001226 0.01512 0.040031 0.021904 0.039948 8.1729e-4"/>
   <path d="m0.47915 0.96924-0.046404-2.4513e-4"/>
   <path d="m0.53204 0.943 0.018946-0.014794 0.003927 0.060335"/>
   <path d="m0.53691 0.99362 0.037895-0.005318"/>
   <path d="m0.71949 0.88593 0.009681-0.02201 0.032032 0.051271"/>
   <path d="m0.74655 0.92796 0.031715-0.021417"/>
   <path d="m0.60923 0.91341c0.024378-0.007858 0.033737 0.022309 0.00855 0.030285 0.024839-0.007858 0.035468 0.02751 0.01086 0.036525-0.025186 0.007858-0.032119-0.02855-0.01086-0.036525-0.023221 0.007167-0.032232-0.024274-0.00855-0.030285z"/>
   <path d="m0.66755 0.89322c0.023213-0.010829 0.036243 0.017943 0.012244 0.028984 0.023671-0.010886 0.038609 0.022887 0.015313 0.034892-0.024015 0.010928-0.035415-0.024335-0.015313-0.034892-0.022151 0.009998-0.034999-0.020079-0.012244-0.028984z"/>
  </g>
 </g>
</svg>
